<svg width="181" height="180" viewBox="0 0 181 180" fill="none" xmlns="http://www.w3.org/2000/svg">
<g clip-path="url(#clip0_89_3285)">
<path d="M159.602 72.4377C157.063 71.1067 153.98 70.8011 151.137 70.07C144.364 70.0274 138.064 66.4821 131.166 67.3358C126.065 65.9347 120.854 65.6729 115.611 66.0295C113.422 66.1849 111.91 65.6921 111.809 63.1812C112.505 60.546 114.069 58.0017 112.709 55.1311C114.835 45.1659 112.027 36.8831 105.218 33.0925C104.546 33.0676 103.886 33.0329 103.214 33.008C99.0802 33.7563 96.5264 36.317 95.0147 40.0958C93.71 41.6268 91.5075 42.444 91.3323 44.8414C88.9001 48.694 85.8623 52.3263 86.6828 57.3799C85.7457 60.146 84.2443 61.6319 81.254 59.8281C81.0412 59.4032 80.7093 59.1806 80.2388 59.1379C79.8974 58.7463 79.5658 58.3659 79.2133 57.9841C75.9722 53.859 71.6517 51.0489 67.2963 48.289C65.0121 46.0074 62.6215 43.8975 59.2235 43.4335C57.097 41.9203 54.824 41.0072 52.1647 41.8879C46.1058 43.0936 44.9648 46.5296 47.701 51.7248C47.8575 52.3562 48.014 52.9877 48.1705 53.6191C48.9627 56.1773 49.766 58.7258 50.5484 61.2728C52.8018 68.2867 54.2657 75.6148 58.8671 81.6846C60.9459 84.657 60.2291 88.9637 63.5045 91.3656C64.0259 94.4945 63.9743 97.8472 66.8073 100.103C66.6443 105.384 60.9618 107.541 59.8977 112.308C58.752 115.355 54.6819 116.402 54.5207 120.126C50.3625 123.986 49.001 129.406 47.53 134.429C46.4006 138.308 47.0709 143.099 53.667 141.425C60.4575 141.669 65.6572 137.963 70.975 134.529C70.9547 134.212 70.9456 133.885 70.9155 133.557C71.3598 132.756 71.7944 131.944 72.2275 131.153C74.7436 130.673 76.6455 129.33 78.3733 127.765C76.6343 129.34 74.7436 130.673 72.2275 131.153C71.7832 131.954 71.3487 132.766 70.9155 133.557C70.9358 133.874 70.9449 134.201 70.975 134.529C75.0108 133.827 77.4677 130.838 80.0832 128.145C82.4832 125.679 84.4273 125.56 86.0852 128.84C86.4028 129.882 86.7205 130.924 87.0382 131.967C87.7594 138.465 90.7913 143.797 95.3834 148.319C96.3644 149.354 97.3103 150.44 98.3487 151.405C100.198 153.12 102.035 156.244 104.742 154.515C106.822 153.195 109.254 150.72 107.786 147.274C107.908 146.577 108.019 145.87 108.141 145.173C110.906 143.216 109.705 140.325 109.913 137.761C109.997 137.157 110.059 136.551 110.143 135.946C111.019 133.45 109.657 130.621 111.304 128.24C112.822 126.051 109.846 121.439 115.077 121.249C118.753 126.099 122.575 130.8 127.729 134.183C132.772 136.443 133.17 136.312 133.797 132.241C134.46 129.793 135.111 127.355 135.774 124.907C136.395 124.286 136.642 123.598 136.087 122.803C136.334 117.822 136.371 112.848 134.895 107.992C136.736 102.331 131.516 98.8282 130.627 94.0118C133.067 93.1056 135.517 92.2106 137.957 91.3044C140.499 90.4473 143.781 91.6819 145.569 88.6269C147.408 88.5002 149.246 88.3945 151.086 88.2679C155.275 87.1762 159.749 86.5249 161.196 81.3845C161.236 80.6612 161.276 79.917 161.315 79.1937C166.234 75.5954 162.067 73.7742 159.599 72.4796L159.602 72.4377ZM131.906 68.3649C132.573 69.2206 133.251 70.0667 133.225 71.2117C133.251 70.0667 132.584 69.2109 131.906 68.3649ZM118.415 71.0084C120.318 71.791 122.221 72.5735 124.113 73.3658C122.21 72.5832 120.307 71.8007 118.415 71.0084C116.971 69.5104 115.426 69.7939 113.883 70.1934C115.437 69.7842 116.982 69.5006 118.415 71.0084ZM110.353 66.301C110.753 66.7598 111.004 67.2294 111.121 67.6792C111.004 67.2294 110.741 66.7695 110.353 66.301ZM101.137 35.2121C99.552 35.9243 98.8096 37.6937 97.623 38.8855C98.8208 37.6839 99.5632 35.9146 101.137 35.2121ZM87.9836 56.3642C89.2509 53.9995 90.4358 51.6082 91.022 49.0496C90.4456 51.6193 89.2509 53.9995 87.9836 56.3642C88.088 56.5292 88.2036 56.6844 88.2983 56.8381C88.1939 56.6732 88.0783 56.518 87.9836 56.3642ZM87.4668 60.5162C87.8934 59.5143 88.3297 58.5237 88.7563 57.5218C89.3437 57.0885 89.9268 56.7181 90.5793 56.5629C89.938 56.7084 89.334 57.0773 88.7563 57.5218C88.3297 58.5237 87.9031 59.5255 87.4668 60.5162ZM82.1155 61.2232C82.2795 62.9704 80.9715 65.4691 84.2347 65.5977C84.5259 65.9543 84.8156 66.3318 85.0955 66.6982C84.8156 66.3318 84.5147 65.964 84.2347 65.5977C80.9827 65.4593 82.2795 62.9704 82.1155 61.2232ZM55.032 59.4122C55.0848 58.1849 54.2912 57.0259 53.7937 55.845C54.2912 57.0259 55.0751 58.1737 55.032 59.4122C54.639 61.7631 55.1797 63.6939 56.0908 65.4396C55.1699 63.6827 54.6502 61.7533 55.032 59.4122ZM72.225 131.037L72.2181 130.984C72.2181 130.984 72.2264 131.016 72.225 131.037ZM70.6038 126.918C71.2853 126.186 71.9572 125.443 72.6276 124.721C71.9557 125.464 71.2742 126.196 70.6038 126.918ZM98.3425 149.658C100.5 151.026 102.589 152.631 105.541 151.003C102.579 152.62 100.49 151.015 98.3425 149.658ZM93.645 137.332C93.9468 137.226 94.2516 137.079 94.6011 136.893C93.704 135.095 91.5491 133.843 92.1392 131.379C91.5491 133.843 93.704 135.095 94.6108 136.904C94.2613 137.09 93.9356 137.236 93.6547 137.343L93.645 137.332ZM106.658 148.081C106.066 147.356 105.475 146.611 104.883 145.887C105.485 146.622 106.066 147.356 106.658 148.081ZM117.381 117.272C118.13 117.092 118.751 117.24 119.276 117.57C118.74 117.25 118.13 117.092 117.381 117.272ZM129.982 109.518C130.934 110.361 131.87 110.825 132.757 110.328C131.87 110.825 130.944 110.373 129.982 109.518ZM134.339 108.122C134.339 108.122 134.596 108.055 134.768 108.004L134.339 108.122ZM124.842 97.8139C125.327 97.805 125.767 97.6773 126.168 97.5048C125.767 97.6773 125.338 97.7952 124.842 97.8139ZM129.85 94.2953C129.998 94.2844 130.138 94.2414 130.268 94.1871C130.138 94.2414 129.988 94.2732 129.85 94.2953ZM151.497 79.6793C150.147 79.5764 148.808 79.4637 147.458 79.3608L147.491 79.4894C147.54 79.9977 147.479 80.4249 147.339 80.7836C147.481 80.404 147.542 79.9768 147.491 79.4894C145.723 81.6409 142.794 81.3984 140.646 82.798C136.101 83.7075 131.557 84.617 127.012 85.5265C118.384 88.4397 118.13 89.3902 123.766 97.7087C123.26 100.473 125.835 101.28 127.056 102.952C127.021 104.991 127.179 106.98 128.888 108.443C128.846 112.733 128.824 117.024 128.782 121.314C122.657 120.116 120.003 114.79 116.283 110.748C114.972 109.311 114.73 106.254 111.612 108.145C111.339 107.832 110.983 107.65 110.578 107.569C102.975 107.975 106.79 114.002 105.649 117.595C104.707 124.875 102.335 131.982 103.294 139.455L103.25 139.494C99.5777 144.545 98.4926 138.442 96.124 137.849L96.1169 137.954C96.331 134.991 93.8115 133.072 93.2263 130.412C92.7658 126.856 92.3052 123.3 91.8657 119.745C91.5922 117.601 91.7241 115.222 89.2153 114.219C86.6242 113.19 84.5189 114.277 82.5925 115.976C79.3119 118.855 76.0006 121.722 72.7102 124.59C69.8804 124.89 68.0555 126.796 66.2223 128.67L59.4897 132.176C59.623 132.532 59.7047 132.874 59.746 133.193C59.8382 133.841 59.7965 134.448 59.6431 134.995C59.4898 135.542 59.2234 136.05 58.8747 136.531C59.2122 136.06 59.4786 135.552 59.6431 134.995C59.7965 134.448 59.848 133.852 59.746 133.193C59.695 132.863 59.6133 132.521 59.4897 132.176C58.4531 132.41 57.4276 132.634 56.4007 132.879C54.9964 131.268 57.0081 130.165 57.0417 128.757C58.0783 126.534 59.1148 124.312 60.1402 122.099C65.5008 119.572 66.8713 113.869 70.0569 109.616C70.0698 107.439 71.7536 106.207 72.8712 104.642C75.5534 101.438 75.7065 98.2922 72.6895 95.1925L72.1021 92.259C70.9123 90.894 69.7225 89.529 68.523 88.1529L72.1021 92.259C69.1732 86.3457 67.2174 79.8992 62.7928 74.7779C62.3384 74.347 61.8841 73.9161 61.4297 73.4852C60.6109 74.3761 61.2338 75.7233 61.8566 77.0705C61.2338 75.7233 60.5997 74.3858 61.4297 73.4852C60.5926 71.7341 59.353 70.1763 58.1678 68.5907C59.353 70.1763 60.6136 71.7355 61.4297 73.4852C61.8841 73.9161 62.3384 74.347 62.7928 74.7779C63.4687 69.995 60.1588 66.7174 58.3178 62.888C59.0487 58.5297 57.0377 55.1832 54.3475 52.0743C55.8165 49.3762 58.0565 51.3812 59.9338 51.1625C66.6747 57.1788 73.1034 63.6051 80.9014 68.326C82.8179 70.7507 84.6896 73.9825 88.101 73.3321C90.6171 72.852 92.0399 70.2139 91.1007 67.1932C91.2616 65.0053 91.4015 62.816 91.5624 60.6281C93.1203 59.5458 92.7126 58.1292 92.2324 56.697C95.8707 51.6749 99.1562 46.4288 101.683 40.7414C101.953 41.0966 102.309 41.2788 102.747 41.3298C106.389 44.6722 104.505 49.7406 106.555 53.5843C106.557 55.5519 104.643 57.3778 106.078 59.454C103.142 71.4049 105.642 74.6796 117.22 73.9988C119.689 74.5045 122.197 75.5282 124.494 73.4865C126.564 73.8281 128.614 74.1682 130.684 74.5097C135.52 75.7875 140.376 77.0877 145.455 76.9723C146.137 77.7555 146.81 78.5274 147.482 79.3204C148.832 79.4233 150.171 79.5359 151.521 79.6388L151.497 79.6793ZM160.517 79.6336C158.469 80.493 156.419 81.3943 154.999 80.0136C156.419 81.3943 158.479 80.5042 160.517 79.6336Z" fill="#FEEA00"/>
</g>
<defs>
<clipPath id="clip0_89_3285">
<rect width="129.922" height="124.925" fill="white" transform="translate(0 85.3687) rotate(-41.0771)"/>
</clipPath>
</defs>
</svg>
