<svg width="563" height="162" viewBox="0 0 563 162" fill="none" xmlns="http://www.w3.org/2000/svg">
<g clip-path="url(#clip0_89_3280)">
<path d="M297.439 127.374C301.473 127.767 305.427 127.052 309.37 126.034C309.821 125.838 310.143 125.613 310.315 125.378C314.402 126.221 318.501 124.836 322.606 124.139C324.685 124.225 325.624 123.516 326.835 123.007C328.488 123.286 330.043 123.792 332.188 122.744C334.238 122.378 336.265 122.024 338.316 121.657C339.284 121.41 340.227 121.165 341.17 120.92C350.434 120.001 359.53 118.717 368.313 116.683L368.42 116.742C370.822 116.826 371.225 116.01 372.23 115.445C377.584 116.89 379.526 113.264 383.668 113.305C391.228 113.373 397.225 111.381 403.505 109.677C410.161 109.69 414.836 105.994 421.809 106.578C424.063 106.885 425.594 105.91 427.477 105.608C429.752 105.028 432.051 104.444 434.326 103.864C437.381 103.773 438.172 102.661 439.885 101.968C442.464 102.487 444.087 101.662 445.737 100.86L446.109 101.058L446.84 100.918C451.531 100.751 453.54 98.7539 457.471 98.0594C464.146 98.2314 461.874 96.2903 463.243 95.2175C466.266 95.2734 468.851 97.1241 472.488 94.56C474.673 94.7054 476.678 94.586 478.048 93.522C482.28 92.4166 484.79 90.441 489.844 89.7575C491.796 89.4029 496.132 89.3939 492.375 88.1816C493.183 87.6307 494.226 86.5426 495.712 87.0921C499.617 88.5104 499.877 86.6919 501.404 85.9045C506.002 86.2134 508.21 84.6485 510.968 83.5109C517.671 82.6515 519.313 79.6515 525.231 78.4731C524.466 78.3305 523.702 78.1879 522.937 78.0454C524.501 75.868 531.3 78.1619 532.56 75.7342C533.329 73.7933 534.098 71.8523 534.867 69.9114C533.665 69.2302 532.718 68.3849 534.446 67.6008C532.718 68.3849 533.641 69.2331 534.867 69.9114C534.098 71.8523 533.329 73.7933 532.56 75.7342C539.031 73.3197 540.571 70.3048 544.361 67.5618C545.445 66.8175 546.505 66.085 547.589 65.3407C549.237 63.6719 557.467 63.5002 555.992 61.1258C557.632 60.0212 560.967 58.7084 555.579 58.4655C560.01 55.8707 554.183 54.857 553.374 53.0658C553.107 52.695 552.839 52.3242 552.571 51.9534C553.058 50.7965 553.545 49.6396 554.057 48.4799C554.493 46.891 552.065 46.3807 548.397 46.3469C547.25 45.704 550.433 44.1588 546.439 44.1008C545.076 41.2036 537.371 40.7504 532.694 39.1277C530.52 38.4446 528.673 37.5711 526.078 37.1251C523.713 36.7237 524.019 33.3889 517.627 36.688C516.546 37.2442 515.827 36.6404 515.822 36.3818C515.786 34.3834 510.42 34.7459 507.592 34.0056C506.173 32.5364 502.782 32.5238 498.633 33.0651C495.115 31.5476 491.312 31.2168 486.79 33.8761C486.337 33.8399 485.906 33.7832 485.5 33.7148L484.948 31.3569C477.816 32.383 474.876 29.0006 467.125 30.6984C466.737 31.0033 466.325 31.311 465.938 31.6247C466.032 31.7924 466.127 31.9601 466.22 32.1189C466.126 31.9512 466.031 31.7836 465.937 31.6159C466.325 31.311 466.737 31.0033 467.125 30.6984C466.175 29.6122 462.392 30.2982 460.607 29.7392C459.614 27.6567 456.548 28.9289 453.691 29.8547C450.724 29.6314 452.572 26.0617 445.299 28.8565C442.226 28.3685 438.654 28.5112 434.994 28.7625C438.781 25.564 430.212 30.0578 431.721 28.2711C429.238 25.595 425.429 28.8052 422.304 28.94C418.2 28.1619 414.052 27.4337 408.273 28.7387L408.277 28.774C406.985 28.8096 405.692 28.8364 404.4 28.872C403.362 27.0363 401.468 27.0354 395.95 28.864C393.406 28.6356 391.238 28.8547 390.04 30.1129C384.932 31.6074 382.753 28.5468 377.521 30.2614C375.12 30.4006 372.716 32.2119 370.158 30.3849C368.255 29.0352 368.116 31.0361 367.333 31.5841C364.689 30.9294 360.321 31.9345 357.759 30.7069C355.619 29.68 353.658 31.4393 352.005 32.2236C350.255 31.5442 348.443 30.9705 345.624 32.4283C343.204 31.774 340.607 31.525 336.863 31.688C330.836 31.9404 325.089 32.8752 319.249 33.66C318.11 33.5078 316.971 33.3645 315.856 33.2095C311.734 33.551 306.566 34.5339 303.673 34.0962C297.379 33.1374 298.894 35.2122 297.278 36.0906C293.443 36.7559 297.531 34.6394 294.654 34.9775C291.769 35.0305 289.593 35.5992 288.1 36.6776C284.704 35.7805 284.047 32.9434 276.075 35.3107C272.331 36.9577 267.34 37.7589 262.812 38.8812C260.753 39.6059 258.749 40.3689 256.022 40.4928C256.699 39.6801 261.31 37.9849 257.032 38.2732C250.653 38.7101 243.332 38.1313 237.301 40.8875C236.203 41.0881 235.105 41.2886 234.007 41.4892C233.496 41.3883 224.609 40.8416 224.416 40.9C222.104 40.7338 220.203 41.1003 218.664 42.0053C215.844 41.55 211.639 41.4006 209.414 42.1896C203.026 44.4602 196.69 44.2037 190.269 44.7081C185.941 44.7788 181.651 44.7556 177.262 44.9496C174.387 45.082 174.169 45.778 175.296 46.4591C172.467 46.9883 169.637 47.5087 166.784 48.0408C162.174 46.7768 158.014 48.0703 153.887 49.646C150.298 49.4332 147.704 50.2655 145.504 51.4807C141.53 50.1151 139.309 51.5741 137.057 52.9832C133.473 52.6057 131.39 52.9728 130.806 54.0844C126.346 56.8526 121.368 54.577 116.739 55.7021C111.485 55.3184 109.473 58.1296 104.84 58.3702C106.2 55.9485 104.311 55.7772 98.6702 57.4058C94.2347 58.687 96.5165 60.2872 93.5491 61.5479C92.3698 61.4809 91.214 61.4022 90.0347 61.3352C90.0993 60.6124 90.1639 59.8896 90.2438 59.0846C86.1675 60.0286 88.774 61.6353 84.7957 62.3533C81.5162 63.0785 78.2377 63.8125 74.9336 64.5406L74.2269 64.6773L74.1094 64.9503C69.4719 64.512 64.6148 63.9029 62.1151 67.0217C61.6579 67.585 61.7004 67.9465 59.8881 68.0076C51.0255 68.3073 45.7965 70.6831 41.4451 73.5278C38.7344 74.4275 34.8895 75.2192 33.4903 76.2508C29.8458 78.9589 18.5333 80.6819 21.5656 84.2143C9.9976 88.6404 5.91548 93.5633 5.07414 98.7042C1.9332 100.397 6.3508 101.084 5.98274 102.406C4.76001 102.818 5.28802 103.069 5.9389 103.305C6.18725 104.357 4.31535 105.82 8.04923 106.204C11.1874 107.033 7.89131 109.101 10.8349 109.971C9.92624 111.57 16.1697 110.828 15.6451 112.302C13.8856 114.297 20.4394 112.802 21.4394 114.312C23.93 118.113 32.8986 119.562 43.1588 120.126C50.9622 122.901 61.6286 123.74 73.1732 123.992L73.6652 124.148L74.3975 124.018C75.8668 124.855 77.0157 125.936 81.2454 124.813C90.4166 126.077 97.5854 128.542 107.919 129.098C109.134 130.734 114.652 130.184 117.184 131.156C117.626 133.437 124.85 131.488 127.08 132.648C126.805 133.914 127.615 134.444 131.1 133.14C131.766 133.08 132.432 133.02 133.098 132.959C134.535 133.309 135.726 133.902 137.427 133.952C143.031 134.134 147.527 135.912 154.66 134.045L154.999 134.167L155.544 134.138C156.511 136.429 161.641 135.755 166.356 135.371L166.43 135.362C169.123 136.011 172.042 136.455 176.066 135.704C190.089 135.629 203.401 136.711 218.462 134.86C220.387 135.966 223.64 135.441 226.667 134.897C230.01 134.29 233.194 132.968 236.697 133.718C239.631 134.079 242.411 135.04 245.947 133.105C247.084 133.239 248.352 133.635 249.306 133.479C260.668 131.544 272.016 130.121 283.419 129.809C287.912 128.807 293.399 129.476 297.266 127.385L297.439 127.374ZM203.86 45.4081C204.857 44.9781 205.791 44.6538 206.644 44.4909C205.766 44.6567 204.832 44.981 203.86 45.4081ZM215.828 43.322C215.236 43.5882 214.923 43.8932 215.368 44.2879C214.923 43.8932 215.237 43.5971 215.828 43.322ZM170.326 50.1901C169.585 50.0358 168.87 49.8875 168.129 49.7332C168.87 49.8875 169.586 50.0446 170.326 50.1901ZM126.022 57.7041C125.671 57.4772 125.302 57.306 124.915 57.1906C125.303 57.3148 125.672 57.486 126.022 57.7041ZM103.388 59.1666C103.296 59.4368 103.225 59.6864 103.25 59.8981C103.225 59.6864 103.297 59.4456 103.388 59.1666ZM115.188 58.1998C112.82 58.8269 110.45 59.4451 108.107 60.0782C110.449 59.4363 112.82 58.8269 115.188 58.1998ZM327.627 35.5985C333.025 35.2948 338.448 34.9971 343.846 34.6934C343.606 34.1316 343.166 33.5754 344.023 33.0187C343.165 33.5665 343.63 34.1288 343.846 34.6934C338.447 34.9883 333.025 35.2948 327.627 35.5985ZM73.5773 66.1482C74.6319 66.4266 74.9295 66.8386 74.9353 67.3117C74.9295 66.8386 74.6308 66.4177 73.5773 66.1482ZM152.973 57.558C154.153 57.6338 155.335 57.7184 156.539 57.7914C155.358 57.7067 154.178 57.6309 152.973 57.558ZM217.944 127.054C219.543 127.304 221.143 127.554 222.767 127.801C221.167 127.551 219.568 127.301 217.944 127.054ZM282.478 115.017C282.295 115.154 282.137 115.298 281.98 115.442C282.113 115.301 282.295 115.154 282.478 115.017ZM239.275 123.42C238.875 123.619 238.499 123.815 238.1 124.023C238.476 123.827 238.875 123.619 239.275 123.42C241.024 121.972 243.267 121.333 245.865 121.171C243.292 121.33 241.024 121.972 239.3 123.417L239.275 123.42ZM282.951 117.348C282.951 117.348 283.181 117.392 283.283 117.416C283.181 117.392 283.054 117.372 282.951 117.348ZM267.83 119.322C268.574 119.288 269.328 119.343 270.099 119.332C269.353 119.34 268.598 119.285 267.83 119.322ZM341.568 112.639C341.406 112.748 341.243 112.847 341.055 112.941C341.243 112.847 341.405 112.739 341.568 112.639ZM366.78 109.363C365.68 109.546 364.609 109.77 363.566 110.009C364.609 109.77 365.679 109.537 366.78 109.363ZM288.523 120.859C289.405 120.728 290.465 120.416 291.391 120.236C290.465 120.416 289.381 120.731 288.523 120.859ZM243.351 126.714C246.829 127.038 250.438 126.149 254.014 125.613C250.438 126.149 246.83 127.047 243.351 126.714ZM304.799 119.375C305.072 119.37 305.296 119.361 305.543 119.341C305.321 119.367 305.073 119.378 304.799 119.375ZM304.282 119.641C304.117 119.723 303.926 119.791 303.76 119.864C303.927 119.799 304.092 119.726 304.282 119.641ZM236.786 126.627C236.03 126.555 235.319 126.442 234.563 126.379C235.319 126.442 236.054 126.552 236.786 126.627ZM298.034 118.436C298.402 118.598 298.542 118.734 298.506 118.845C298.542 118.734 298.376 118.592 298.034 118.436ZM267.131 121.854C267.02 121.759 266.859 121.662 266.648 121.562C266.859 121.662 267.019 121.751 267.131 121.854ZM331.268 113.644C330.562 114.21 329.854 114.767 329.173 115.33C329.879 114.764 330.585 114.198 331.268 113.644ZM313.73 116.054C312.403 116.425 311.075 116.787 309.747 117.157C308.841 117.076 307.959 117.001 307.053 116.92C308.893 114.764 311.264 115.218 313.731 116.063L313.73 116.054ZM261.662 120.914C261.057 120.86 260.477 120.803 259.897 120.746C260.478 120.812 261.058 120.869 261.662 120.914ZM208.014 124.002C208.639 124.018 209.283 123.987 209.921 123.903C209.258 123.981 208.614 124.02 208.014 124.002ZM229.384 127.479C229.263 127.932 229.926 128.274 230.808 128.573C231.147 128.694 231.535 128.818 231.923 128.933C231.535 128.818 231.171 128.691 230.808 128.573C229.925 128.265 229.263 127.932 229.384 127.479ZM318.542 118.823C317.952 118.678 317.102 118.662 315.734 118.894C317.102 118.662 317.976 118.675 318.542 118.823ZM315.708 118.888C313.486 118.64 311.263 118.392 309.065 118.14C311.288 118.389 313.51 118.637 315.708 118.888ZM401.621 107.646C397.895 108.388 393.932 109.658 390.505 109.766C393.932 109.658 397.894 108.379 401.621 107.646C406.226 107.596 409.245 106.133 412.747 104.97C409.244 106.124 406.226 107.596 401.621 107.646ZM431.688 102.628C433.222 101.258 435.825 100.505 438.88 99.9854C435.851 100.511 433.222 101.258 431.689 102.636L431.688 102.628ZM374.074 107.174C373.343 107.313 372.612 107.453 371.882 107.601C370.564 108.051 369.877 108.784 368.401 109.163C369.902 108.782 370.564 108.051 371.882 107.601C372.613 107.462 373.344 107.322 374.074 107.174ZM464.39 94.3676C464.31 94.3233 464.277 94.2557 464.197 94.2114C464.253 94.2674 464.31 94.3233 464.39 94.3676ZM424.769 98.0501C422.592 97.9753 420.087 97.4384 417.708 98.4063C413.007 99.7634 407.977 100.864 403.116 102.124C407.953 100.867 413.007 99.7634 417.708 98.4063C420.063 97.4501 422.592 97.9753 424.769 98.0501ZM487.424 88.4685C484.863 88.5193 482.866 88.9149 481.11 89.461C482.866 88.9149 484.887 88.5164 487.424 88.4685ZM454.299 91.4323C452.517 91.7491 450.705 92.0246 448.893 92.3002C450.706 92.0335 452.518 91.7579 454.299 91.4323ZM472.393 34.1648C471.362 34.0892 470.473 33.9523 469.679 33.7685C470.473 33.9523 471.337 34.0921 472.393 34.1648ZM438.869 31.8294C437.631 32.109 436.544 32.1921 435.544 32.1666C436.569 32.1892 437.656 32.1061 438.869 31.8294ZM445.778 31.0262C443.5 31.151 441.232 31.3639 438.891 31.8C441.233 31.3727 443.525 31.1481 445.778 31.0262ZM75.5597 69.8666C74.879 69.589 74.6859 69.2184 74.713 68.8129C74.7104 69.2155 74.879 69.589 75.5842 69.8637L75.5597 69.8666ZM50.1478 74.6236C49.8153 74.9756 49.0209 75.4266 48.6178 75.8137C49.0455 75.4237 49.8399 74.9727 50.1478 74.6236ZM40.8449 83.4769C40.7151 83.6441 40.6353 83.8144 40.5567 83.9935C40.6353 83.8144 40.7396 83.6412 40.8449 83.4769ZM9.63841 101.064C9.52084 100.488 9.76275 99.7891 9.37994 99.2888C9.76275 99.7891 9.51981 100.479 9.63841 101.064ZM12.0398 103.258C12.8782 102.757 13.692 102.26 14.5294 101.75C16.8224 101.114 18.7076 100.401 20.2136 99.6424C18.682 100.395 16.8214 101.105 14.5294 101.75C13.691 102.251 12.8772 102.749 12.0398 103.258ZM42.5345 116.087C42.6614 116.743 42.7084 117.354 42.746 117.886C42.6827 117.348 42.6369 116.746 42.5345 116.087ZM71.4953 115.866C66.2296 115.385 60.1595 115.482 55.2644 114.761C53.7523 114.831 52.2413 114.911 50.7046 114.984C52.2167 114.914 53.7277 114.834 55.2644 114.761C60.1595 115.482 66.2553 115.391 71.4953 115.866C72.5538 115.965 73.5641 116.079 74.5294 116.233C73.5641 116.079 72.5527 115.956 71.4953 115.866ZM43.467 119.992C43.467 119.992 43.3493 120.05 43.2551 120.097L43.467 119.992ZM70.5084 120.193C70.2944 120.28 70.106 120.374 69.9668 120.462C70.1295 120.362 70.2944 120.28 70.5084 120.193ZM129.495 118.632C128.98 118.916 128.403 119.306 127.729 119.51C128.378 119.309 128.954 118.91 129.494 118.623L129.495 118.632ZM153.945 121.596C154.838 121.348 155.734 121.126 156.676 121.078C158.308 121.181 159.874 121.364 161.464 121.526C159.899 121.361 158.332 121.179 156.676 121.078C155.734 121.126 154.837 121.339 153.945 121.596ZM164.95 119.587C168.397 119.441 171.762 119.448 174.854 119.88C171.762 119.448 168.42 119.43 164.949 119.578L164.95 119.587ZM194.566 116.884C193.513 116.838 192.461 116.792 191.408 116.737C189.354 116.862 190.275 113.464 185.687 116.622C182.007 116.277 180.166 117.79 177.476 118.437C173.31 118.622 173.096 115.528 169.54 116.866C164.289 118.842 161.468 117.958 158.401 117.523C154.296 116.951 154.854 118.306 153.609 118.953C152.997 117.559 146.377 118.069 147.06 117.095C148.805 114.548 143.185 116.567 141.999 116.018C138.915 118.41 134.478 117.135 130.706 117.694C129.164 117.518 127.645 117.312 126.02 118.12C123.048 116.797 120.504 115.505 113.945 115.901C109.217 116.179 104.087 114.52 102.712 113.842C95.5936 110.325 90.4502 113.853 84.5597 115.689C80.7518 113.616 71.1302 114.881 67.5015 112.634C65.3246 111.29 63.6317 114.064 61.2725 113.501C61.2548 112.501 60.4648 111.718 57.939 111.434C51.3433 111.512 47.8598 109.865 43.5101 108.696C43.8921 107.069 39.809 107.531 37.5208 107.147C38.0914 105.641 32.9806 106.054 32.5201 104.892C29.8434 102.9 30.2138 100.326 29.8 98.0776C29.4532 96.1874 26.1256 93.9591 31.8719 91.5315C35.622 90.3576 40.6741 86.6885 40.0006 85.6234C40.9681 85.161 41.91 84.6927 42.8776 84.2303C44.953 84.0757 46.1931 83.5992 46.6254 82.8243C49.9484 82.4694 52.5292 81.737 54.05 80.4676C57.1815 80.1799 57.715 79.2054 58.685 78.3404C60.7575 77.5246 64.3418 77.9079 65.7815 76.5855C68.8158 76.3182 69.2416 75.2758 70.596 74.4998C74.1581 75.1181 76.8278 74.2947 79.2142 72.9683C82.1941 72.6627 85.0878 72.26 87.7032 71.3983C91.52 71.0033 93.5737 69.8143 95.783 68.6785C99.2426 69.2732 102.439 68.4773 105.582 67.4374C107.652 67.4533 108.494 66.7644 109.603 66.2405C113.312 66.8327 116.531 65.8018 119.754 64.8149C123.386 65.6039 126.577 63.9058 129.972 63.5335C133.787 63.3354 136.301 62.0297 139.426 61.2602C144.688 62.1346 149.318 61.2416 153.564 59.196C156.169 59.3011 158.775 59.4238 161.602 58.6625C165.947 58.3126 170.708 58.951 174.23 56.6864C175.354 56.4917 176.453 56.3 177.577 56.1053C181.011 56.694 184.466 56.4041 187.975 55.0887C195.929 55.3249 203.73 53.8359 211.568 52.4586C215.544 52.1432 219.52 51.8279 223.496 51.5214C231.797 50.4653 240.258 50.3558 248.432 48.4385C256.782 48.6549 265.591 47.6821 274.249 47.1293C275.016 47.0838 275.97 46.2922 276.864 45.8385C284.626 45.5072 292.282 45.7517 300.301 44.2102C302.958 43.7012 303.739 44.1994 304.532 44.7946C308.03 44.6605 311.576 44.932 314.959 43.5958C323.192 41.5463 330.779 42.6928 338.8 41.8037C343.967 41.2321 348.979 41.68 354.257 40.5679C356.492 40.5018 357.953 41.4745 360.817 40.6104C361.299 40.6789 361.796 40.6652 362.357 40.5635C365.468 40.9488 368.542 41.4456 371.827 39.7096C375.201 41.2708 379.373 39.6541 383.324 38.9214C388.135 37.8642 390.095 41.3886 395.889 38.7319C411.171 38.5537 426.455 38.3843 441.737 38.2061C446.027 38.6495 449.656 39.6265 454.944 39.2374C459.428 38.7996 460.233 42.2542 466.783 39.6606C467.817 39.7714 468.853 39.891 469.888 40.0018C472.099 41.8429 477.39 41.4802 482.288 41.3783C494.699 43.701 507.696 45.7046 518.958 48.6451C520.375 50.7314 526.731 50.7353 529.976 52.0524C533.64 55.4479 534.002 58.9456 528.908 63.317C525.873 65.9175 520.621 67.8848 516.379 69.7512C510.242 72.4572 501.753 74.4562 496.89 77.8172C495.345 78.8838 488.851 76.8579 487.802 79.8062C485.104 81.0262 478.407 80.4545 478.576 82.9556C477.707 83.192 476.837 83.4283 475.992 83.6617C472.39 82.914 466.687 84.2279 466.398 84.9502C465.356 87.5312 460.198 86.9039 457.536 87.7978C451.181 89.9215 440.155 88.7858 437.438 93.2354C436.956 94.0073 434.137 94.1956 432.124 94.0388C425.756 93.5089 422.015 95.1824 418.873 97.2949C415.214 98.181 410.729 96.7056 409.68 97.5352C404.104 101.838 395.053 101.382 386.989 102.33C384.209 102.853 381.429 103.377 378.625 103.903C377.998 103.87 377.346 103.839 376.718 103.796C373.424 103.969 371.234 104.852 369.286 105.877C367.689 106.074 366.117 106.267 364.52 106.464C359.471 107.612 354.421 108.76 349.371 109.898C345.639 109.103 342.495 110.135 339.419 111.319C335.785 110.512 332.777 110.794 330.798 112.832C327.804 112.8 325.184 111.079 321.68 113.502C319.911 113.933 317.302 113.364 316.178 114.614C315.627 114.803 315.23 115.029 314.96 115.275C311.729 113.027 305.873 114.52 300.51 115.329C299.256 112.928 294.425 112.969 288.414 113.782C287.642 113.149 289.94 111.279 284.575 112.499C283.113 114.057 279.561 113.312 277.352 114.028C275.119 114.961 271.985 111.834 270.234 114.963C269.308 115.143 268.357 115.326 267.433 115.516C264.845 115.552 264.564 114.646 263.26 114.156C260.503 114.238 260.215 111.367 255.343 114.022C252.017 113.501 248.955 113.53 246.886 115.436C242.329 116.106 238.549 115.969 235.545 115.008C235.458 114.902 235.462 114.732 235.259 114.693C228.833 113.464 218.601 116.741 213.202 114.282C212.783 114.743 212.338 115.197 211.918 115.658C206.159 116.067 200.423 116.464 194.664 116.872L194.566 116.884ZM197.526 121.927C193.191 121.515 189.934 123.284 186.863 125.567C186.31 125.525 185.78 125.471 185.25 125.417C185.78 125.471 186.333 125.513 186.863 125.567C189.959 123.281 193.191 121.515 197.526 121.927ZM216.393 121.497C217.017 121.504 217.615 121.505 218.16 121.477C217.591 121.508 216.992 121.507 216.393 121.497C213.947 121.463 211.284 121.284 210.276 122.252C211.284 121.284 213.921 121.457 216.393 121.497ZM255.229 116.87C254.757 117.095 254.181 117.279 253.552 117.442C254.181 117.279 254.756 117.086 255.229 116.87ZM169.9 121.839C168.713 121.916 167.617 121.929 166.543 121.903C167.617 121.929 168.737 121.913 169.9 121.839C169.742 122.403 169.829 122.929 170.159 123.409C169.829 122.929 169.743 122.412 169.9 121.839ZM231.221 116.393C227.17 116.699 223.093 117.008 219.042 117.315C217.289 117.673 215.538 118.039 213.81 118.394C215.563 118.037 217.314 117.67 219.042 117.315C223.093 117.008 227.17 116.699 231.221 116.393C231.593 116.161 231.992 115.953 232.443 115.757C231.991 115.945 231.593 116.161 231.221 116.393ZM161.625 126.075C160.502 125.858 159.851 125.613 159.695 125.354C159.851 125.613 160.501 125.849 161.625 126.075C161.461 126.166 161.346 126.251 161.182 126.342C161.322 126.254 161.461 126.166 161.625 126.075ZM167.051 129.407C162.205 129.744 159.12 129.579 158.978 128.576C159.121 129.588 162.231 129.75 167.051 129.407ZM213.551 128.491C213.244 129.904 213.828 130.846 217.111 130.361C213.853 130.843 213.245 129.913 213.551 128.491ZM323.302 120.731C324.515 120.866 325.727 121.001 326.938 121.126C325.726 120.992 324.514 120.857 323.302 120.731ZM316.57 122.613C315.565 123.178 314.613 123.773 312.655 123.869C312.26 124.112 311.865 124.355 311.445 124.601C311.84 124.358 312.235 124.115 312.655 123.869C314.613 123.773 315.566 123.187 316.57 122.613Z" fill="#7F3DD2"/>
</g>
<defs>
<clipPath id="clip0_89_3280">
<rect width="96.7956" height="555.498" fill="white" transform="translate(551.7 0.866211) rotate(83.2961)"/>
</clipPath>
</defs>
</svg>
