<svg width="187" height="183" viewBox="0 0 187 183" fill="none" xmlns="http://www.w3.org/2000/svg">
<g clip-path="url(#clip0_89_3283)">
<path d="M158.744 147.084C158.277 143.674 156.429 140.446 155.163 137.156C150.487 130.502 149.566 121.871 143.926 115.72C141.743 109.755 138.369 104.476 134.368 99.5967C132.692 97.5645 132.12 95.7417 134.505 93.8939C137.568 92.7396 141.145 92.4965 143.005 89.167C154.233 84.3049 160.377 75.7889 159.341 66.4884C158.897 65.8142 158.471 65.1441 158.028 64.4699C154.416 60.9484 150.133 60.2345 145.384 61.3883C142.978 61.1788 140.645 59.594 138.178 61.0925C132.716 61.3975 127.047 60.9568 122.676 65.2796C119.318 66.2899 116.819 65.8565 116.5 61.6755C116.768 61.1714 116.754 60.6917 116.468 60.2018C116.613 59.5952 116.755 59.0059 116.882 58.3952C118.659 52.3519 118.398 46.169 118.063 39.9867C118.703 36.1636 119.102 32.3558 117.188 28.7093C117.187 25.5755 116.497 22.7165 113.783 20.7292C108.383 15.6434 104.228 16.9209 101.053 23.2158C100.544 23.8088 100.036 24.4017 99.5274 24.9946C97.5772 27.5513 95.6444 30.1122 93.6984 32.6516C88.4085 39.7413 82.2613 46.2776 79.5303 55.006C78.0713 59.1096 73.3601 61.4085 73.2925 66.285C70.5957 68.9745 67.2808 71.2595 67.0479 75.6016C61.7696 79.1208 55.7014 75.0661 50.2982 77.3459C46.5207 78.3474 42.6614 75.0963 38.9071 77.5326C32.2347 76.1553 25.9856 78.5991 20.0483 80.6595C15.4683 82.2568 11.2497 86.2496 17.4816 91.5346C21.9735 98.3455 29.2194 100.85 36.2824 103.658C36.5783 103.418 36.8915 103.181 37.1916 102.923C38.2842 102.8 39.381 102.659 40.4563 102.532C42.6786 104.658 45.3167 105.583 48.051 106.182C45.2994 105.579 42.6786 104.658 40.4563 102.532C39.3637 102.655 38.2669 102.796 37.1916 102.923C36.8957 103.164 36.5824 103.4 36.2824 103.658C39.7805 107.116 44.4145 107.437 48.8704 108.119C52.9541 108.749 54.4252 110.567 52.3719 114.473C51.5738 115.51 50.7757 116.547 49.9777 117.583C44.1242 122.816 41.0223 129.494 39.798 137.136C39.469 138.816 39.0666 140.497 38.8458 142.185C38.4567 145.189 36.6808 149.162 40.2581 150.605C42.9976 151.719 47.1117 152.374 49.4597 148.538C50.2257 148.171 50.9957 147.788 51.7617 147.421C55.6017 148.762 57.593 145.574 60.2448 143.991C60.8942 143.652 61.5305 143.291 62.18 142.952C65.2323 142.07 67.0495 138.767 70.5253 138.719C73.7244 138.679 76.1618 132.556 79.991 137.54C77.8086 144.513 75.8732 151.526 76.1553 158.923C77.4575 165.429 77.8626 165.727 82.2807 163.505C85.1366 162.447 87.9753 161.386 90.8312 160.329C91.8707 160.504 92.7157 160.267 93.1068 159.169C98.1502 155.942 103.04 152.513 106.762 147.687C113.58 145.544 113.37 137.999 117.461 133.775C120.047 135.53 122.629 137.302 125.215 139.057C127.824 140.946 128.903 145.016 133.136 144.637C134.541 146.348 135.925 148.071 137.33 149.782C141.316 153.118 145.069 157.041 151.105 154.875C151.84 154.41 152.596 153.931 153.33 153.466C160.276 155.77 159.154 150.425 158.701 147.11L158.744 147.084ZM143.435 117.16C143.063 118.408 142.708 119.661 141.57 120.433C142.708 119.661 143.08 118.413 143.435 117.16ZM131.452 105.807C132.012 108.213 132.572 110.62 133.116 113.022C132.555 110.616 131.995 108.209 131.452 105.807C131.911 103.351 130.558 102.038 129.092 100.808C130.575 102.042 131.928 103.356 131.452 105.807ZM130.44 94.6432C130.27 95.3538 129.986 95.9272 129.627 96.3544C129.986 95.9272 130.252 95.3496 130.44 94.6432ZM154.425 63.974C152.625 62.92 150.377 63.4264 148.385 63.0961C150.394 63.4306 152.642 62.9241 154.425 63.974ZM124.576 65.8442C127.771 65.4364 130.936 64.9295 133.846 63.7205C130.931 64.9468 127.771 65.4364 124.576 65.8442C124.487 66.0612 124.416 66.2824 124.332 66.4821C124.42 66.2651 124.491 66.0439 124.576 65.8442ZM120.155 68.231C121.432 67.9503 122.705 67.687 123.982 67.4063C124.815 67.6789 125.583 67.9912 126.19 68.5211C125.601 67.9953 124.819 67.6616 123.982 67.4063C122.705 67.687 121.428 67.9676 120.155 68.231ZM115.736 63.4899C114.142 64.8674 110.787 65.3286 112.934 68.6097C112.788 69.1428 112.621 69.6891 112.457 70.2181C112.621 69.6891 112.771 69.1387 112.934 68.6097C110.804 65.3328 114.142 64.8674 115.736 63.4899ZM98.6413 35.7406C99.8784 34.9373 100.459 33.3538 101.267 32.0447C100.459 33.3538 99.8826 34.9199 98.6413 35.7406C96.0684 36.9938 94.5567 38.8675 93.484 40.9746C94.5608 38.8502 96.0857 36.9979 98.6413 35.7406ZM40.5679 102.449L40.615 102.405C40.615 102.405 40.5894 102.435 40.5679 102.449ZM43.4674 97.9934C44.658 98.1502 45.8528 98.2896 47.0261 98.4422C45.8313 98.3027 44.6407 98.146 43.4674 97.9934ZM40.55 140.963C40.7149 144.026 40.5998 147.186 44.2494 148.94C40.604 147.169 40.7191 144.008 40.55 140.963ZM49.3325 127.782C49.6461 128.004 50.0026 128.199 50.4284 128.411C51.5614 126.282 51.2849 123.302 54.1054 122.163C51.2849 123.302 51.5614 126.282 50.4243 128.428C49.9984 128.216 49.6287 128 49.3284 127.8L49.3325 127.782ZM47.8848 147.996C48.1808 146.912 48.4984 145.815 48.7944 144.732C48.4942 145.833 48.1808 146.912 47.8848 147.996ZM85.4855 137.023C86.1834 137.63 86.4716 138.34 86.5137 139.083C86.4543 138.336 86.1834 137.63 85.4855 137.023ZM101.847 143.945C101.685 145.464 101.884 146.702 102.987 147.223C101.884 146.702 101.681 145.481 101.847 143.945ZM106.247 147.234C106.247 147.234 106.491 147.439 106.661 147.571L106.247 147.234ZM109.713 130.765C110.059 131.233 110.491 131.574 110.939 131.847C110.491 131.574 110.077 131.237 109.713 130.765ZM116.643 133.212C116.756 133.349 116.896 133.456 117.039 133.545C116.896 133.456 116.761 133.332 116.643 133.212ZM146.016 144.202C145.177 142.81 144.354 141.422 143.514 140.03L143.412 140.152C142.949 140.554 142.488 140.792 142.04 140.904C142.51 140.779 142.97 140.541 143.412 140.152C140.076 139.921 138.272 136.887 135.407 135.762C131.352 131.951 127.297 128.14 123.242 124.328C114.383 117.92 113.276 118.333 109.066 129.639C106.011 131.07 107.015 134.151 106.23 136.51C104.212 137.896 102.377 139.436 102.136 142.127C97.9109 145.073 93.6993 148.042 89.4745 150.988C86.379 144.164 89.7398 137.858 91.1015 131.404C91.593 129.121 94.4142 126.755 90.3929 125.023C90.5091 124.537 90.4395 124.062 90.236 123.611C84.543 116.457 81.3067 124.387 76.997 125.774C69.2216 129.923 60.618 132.554 53.9782 138.698L53.9089 138.681C46.4108 138.609 51.6235 133.297 50.554 130.567L50.4465 130.633C53.4933 128.778 53.615 124.978 55.8086 122.552C58.9656 119.625 62.1227 116.697 65.2929 113.791C67.1992 112.03 69.618 110.502 68.8512 107.35C68.0531 104.099 65.5236 102.797 62.5202 102.096C57.419 100.893 52.3089 99.6518 47.2119 98.4317C44.9464 95.8736 41.8114 95.4164 38.7021 94.9286L30.5836 90.7862C30.328 91.1648 30.0501 91.4831 29.7674 91.7452C29.1978 92.2869 28.5748 92.6692 27.9328 92.9003C27.2909 93.1315 26.6087 93.2247 25.8953 93.2188C26.5914 93.2205 27.2736 93.1273 27.9328 92.9003C28.5748 92.6692 29.1937 92.3042 29.7674 91.7452C30.0543 91.4658 30.3321 91.1474 30.5836 90.7862C29.6324 89.9354 28.6986 89.0889 27.7433 88.2555C28.3408 85.7597 30.8217 86.9584 32.2217 86.0108C35.1175 85.4762 38.0133 84.9417 40.8918 84.403C47.0968 87.8858 53.6294 85.2533 60.0084 85.406C62.1464 83.9021 64.5238 84.6911 66.8327 84.6941C71.8348 85.0852 75.0181 83.0436 75.948 77.9338L78.4078 75.3158C78.9139 73.2013 79.4201 71.0869 79.9304 68.9552L78.4078 75.3158C82.1508 68.3322 87.0931 61.929 89.0197 54.0342C89.1246 53.2896 89.2295 52.5451 89.3344 51.8006C87.8928 51.6204 87.0091 53.168 86.1253 54.7156C87.0091 53.168 87.8754 51.6163 89.3344 51.8006C90.4639 49.7621 91.1239 47.4646 91.8491 45.201C91.1239 47.4646 90.4771 49.7836 89.3344 51.8006C89.2295 52.5451 89.1246 53.2896 89.0197 54.0342C94.1682 51.3635 95.0681 45.8433 97.5308 41.3753C102.302 39.0542 104.174 34.7562 105.341 29.9596C109.003 29.5169 108.603 33.1042 110.124 34.7879C108.936 45.5714 107.129 56.3352 107.944 67.2502C106.907 70.8136 105.051 74.8953 108.063 77.7787C110.285 79.9049 113.856 79.4588 116.156 76.436C118.408 75.0693 120.647 73.6812 122.899 72.3145C125.042 73.0842 126.144 71.6987 127.21 70.2314C134.656 70.2913 142.075 69.8501 149.398 68.3595C149.239 68.8712 149.308 69.346 149.564 69.8103C148.832 75.7005 142.562 77.3881 140.231 82.071C138.308 83.4431 135.189 82.843 134.159 85.6931C120.425 91.1464 118.964 95.8725 127.695 106.722C128.92 109.489 129.666 112.654 133.263 113.479C134.371 115.741 135.466 117.982 136.574 120.245C138.693 125.865 140.804 131.519 144.455 136.407C144.164 137.62 143.878 138.816 143.57 140.025C144.41 141.417 145.233 142.805 146.073 144.197L146.016 144.202ZM152.344 152.991C150.077 151.588 147.768 150.21 148.129 147.859C147.768 150.21 150.073 151.605 152.344 152.991Z" fill="#7F3DD2"/>
</g>
<defs>
<clipPath id="clip0_89_3283">
<rect width="156" height="150" fill="white" transform="translate(34.9211) rotate(13.4624)"/>
</clipPath>
</defs>
</svg>
