<svg width="169" height="36" viewBox="0 0 169 36" fill="none" xmlns="http://www.w3.org/2000/svg">
<path d="M0 17.1148C0 11.5372 4.34563 7.88452 10.0002 7.88452C15.6548 7.88452 19.9603 11.5372 19.9603 17.1148C19.9603 22.6923 15.6147 26.345 10.0002 26.345C4.38567 26.345 0 22.9603 0 17.1148ZM15.8857 17.1148C15.8857 13.844 13.502 11.6142 10.0002 11.6142C6.49843 11.6142 4.11465 13.844 4.11465 17.1148C4.11465 20.3855 6.46147 22.6153 10.0002 22.6153C13.5389 22.6153 15.8857 20.3855 15.8857 17.1148Z" fill="white"/>
<path d="M54.7655 15.2698V26H50.8049V16.3077C50.8049 13.308 49.265 11.6141 46.7272 11.6141C43.4195 11.6141 41.5346 14.1519 41.5346 19.1905V25.9969H37.5739V16.3047C37.5739 13.3049 36.034 11.611 33.4963 11.611C30.2255 11.611 28.3037 14.1488 28.3037 19.1874V25.9938H24.343V8.22937H28.3037V11.728C29.6896 8.99625 32.1103 7.88135 34.8021 7.88135C37.7249 7.88135 40.1086 9.38122 41.0726 12.227C42.4585 9.18719 45.0733 7.88135 48.033 7.88135C51.9167 7.88135 54.7624 10.4592 54.7624 15.2668L54.7655 15.2698Z" fill="white"/>
<path d="M77.8026 15.2699V26.0001H73.8419V16.3078C73.8419 13.3081 72.342 11.6142 69.4563 11.6142C66.1485 11.6142 63.8417 14.152 63.8417 19.1906V25.997H59.8811V8.22946H63.8417V12.0762C65.3046 9.2304 67.8424 7.88452 70.7251 7.88452C74.9168 7.88452 77.8026 10.4623 77.8026 15.2699Z" fill="white"/>
<path d="M82.1483 2.7318C82.1483 1.00094 83.6112 0 84.8801 0C86.149 0 87.6119 1.00094 87.6119 2.7318C87.6119 4.46267 86.112 5.50057 84.8801 5.50057C83.6482 5.50057 82.1483 4.42263 82.1483 2.7318ZM82.9182 8.23237H86.8789V25.9999H82.9182V8.22929V8.23237Z" fill="white"/>
<path d="M109.072 10.9241H106.38C107.187 12.002 107.612 13.3848 107.612 14.9248C107.612 19.0394 104.418 22.0022 98.9579 22.0022C96.4571 22.0022 94.8433 22.1931 94.8433 23.3481C94.8433 24.272 95.6902 24.617 98.114 24.617H102.075C106.614 24.617 109.075 26.5018 109.075 30.2315C109.075 33.9612 106.229 36 99.6909 36C93.1524 36 90.6147 34.1152 90.6147 30.6935C90.6147 28.8856 91.6526 27.4627 93.3834 26.6928C92.0375 26.1168 91.3076 25.0019 91.3076 23.5021C91.3076 21.3862 93.0385 20.5023 94.3844 20.2713C93.1524 19.5014 91.6526 17.6935 91.6526 14.9248C91.6526 10.8871 95.1143 7.88736 99.6509 7.88736C101.037 7.88736 102.306 8.11835 103.381 8.58032L109.072 7.65637V10.9271V10.9241ZM97.88 28.0387C95.3422 28.0387 94.4182 28.9626 94.4182 30.2684C94.4182 31.8084 96.1091 32.5752 99.6878 32.5752C103.612 32.5752 105.265 31.8053 105.265 30.1915C105.265 28.5776 104.11 28.0387 101.958 28.0387H97.88ZM103.766 14.9248C103.766 12.7319 102.152 11.1551 99.6509 11.1551C97.15 11.1551 95.4962 12.7319 95.4962 14.9248C95.4962 17.1176 96.9961 18.7314 99.6509 18.7314C102.152 18.7314 103.766 17.0406 103.766 14.9248Z" fill="white"/>
<path d="M132.377 17.1148C132.377 22.6923 128.607 26.345 123.455 26.345C120.609 26.345 118.262 25.1901 116.802 23.0742V34.7652H112.842V8.22946H116.802V11.1522C118.302 9.03638 120.609 7.88452 123.455 7.88452C128.607 7.88452 132.377 11.5372 132.377 17.1148ZM128.299 17.1148C128.299 13.73 125.799 11.5772 122.568 11.5772C119.106 11.5772 116.799 14.0781 116.799 17.0378V17.1918C116.799 20.1545 119.106 22.6523 122.568 22.6523C125.799 22.6523 128.299 20.5364 128.299 17.1148Z" fill="white"/>
<path d="M151.721 19.4211C151.721 23.3048 149.143 26.3446 144.915 26.3446C140.415 26.3446 137.8 23.6127 137.8 18.8821V11.6907H133.954V8.22902H137.8V5.11532L141.761 1.11462V8.22902H149.99V11.6907H141.761V18.6912C141.761 21.383 142.876 22.6149 144.915 22.6149C146.723 22.6149 147.801 21.229 147.801 19.4211H151.724H151.721Z" fill="white"/>
<path d="M168.023 4.22526V2.23877H157.031V4.23142H164.577L164.614 4.31149C164.546 4.36077 164.469 4.40389 164.407 4.4624C162.264 6.60288 160.12 8.74644 157.977 10.89C157.453 11.4136 156.932 11.9341 156.412 12.4576C156.366 12.5038 156.329 12.55 156.292 12.5993L155.661 13.2307L157.031 14.6012L157.669 13.9637C157.724 13.9236 157.776 13.8774 157.829 13.8251C160.487 11.1641 163.148 8.50313 165.809 5.84524C165.867 5.78673 165.929 5.73129 166.033 5.62966V13.1999H168.029V5.15536C168.029 4.8443 168.029 4.53016 168.029 4.2191L168.023 4.22526Z" fill="#05E283"/>
</svg>
