<svg width="20" height="31" viewBox="0 0 20 31" fill="none" xmlns="http://www.w3.org/2000/svg">
<path d="M19.2838 11.7755L13.333 10.9106L10.6729 5.51766C10.6002 5.37 10.4807 5.25047 10.333 5.17782C9.9627 4.995 9.5127 5.14735 9.32754 5.51766L6.66738 10.9106L0.716603 11.7755C0.55254 11.7989 0.40254 11.8763 0.287697 11.9934C0.148857 12.1361 0.0723498 12.3281 0.0749866 12.5272C0.0776235 12.7263 0.159188 12.9162 0.301759 13.0552L4.60723 17.2528L3.59004 23.1802C3.56619 23.318 3.58144 23.4599 3.63408 23.5895C3.68672 23.7192 3.77464 23.8315 3.88786 23.9137C4.00108 23.9959 4.13507 24.0448 4.27465 24.0547C4.41423 24.0647 4.5538 24.0353 4.67754 23.97L10.0002 21.1716L15.3229 23.97C15.4682 24.0473 15.6369 24.0731 15.7986 24.045C16.2064 23.9747 16.4807 23.588 16.4104 23.1802L15.3932 17.2528L19.6986 13.0552C19.8158 12.9403 19.8932 12.7903 19.9166 12.6263C19.9799 12.2161 19.6939 11.8364 19.2838 11.7755Z" fill="#FFC542"/>
</svg>
