<svg width="52" height="53" viewBox="0 0 52 53" fill="none" xmlns="http://www.w3.org/2000/svg">
<path d="M51.9741 8.51644V0H5.76193V8.54285H37.485L37.6404 8.88615C37.3555 9.09741 37.0319 9.28226 36.7729 9.53313C27.7609 18.7098 18.749 27.8996 9.73704 37.0894C7.53584 39.3341 5.34757 41.5655 3.15933 43.8102C2.9651 44.0082 2.80974 44.2063 2.65437 44.4175L0 47.1243L5.76193 53L8.44222 50.2668C8.67528 50.0952 8.89543 49.8971 9.11555 49.6726C20.2898 38.2646 31.4771 26.8565 42.6643 15.4616C42.9103 15.2108 43.1693 14.9731 43.6095 14.5374V46.9923H52V12.504C52 11.1704 52 9.82362 52 8.49003L51.9741 8.51644Z" fill="#F4FAFF"/>
</svg>
