<svg width="15" height="15" viewBox="0 0 15 15" fill="none" xmlns="http://www.w3.org/2000/svg">
<path d="M14.847 7.27293L0.400114 0.0287987C0.341394 -0.00056472 0.274038 -0.0074737 0.210137 0.00807163C0.139216 0.0256064 0.0781317 0.0705324 0.0402594 0.133013C0.00238707 0.195493 -0.00918731 0.270436 0.00807067 0.341433L1.4968 6.42484C1.51925 6.51639 1.5866 6.59066 1.67641 6.62002L4.22728 7.49574L1.67814 8.37146C1.58833 8.40255 1.52098 8.4751 1.50025 8.56664L0.00807067 14.6587C-0.00747288 14.7226 -0.000564561 14.79 0.0287955 14.847C0.0961509 14.9834 0.261949 15.0387 0.400114 14.9713L14.847 7.76865C14.9005 7.74274 14.9437 7.69783 14.9713 7.64601C15.0387 7.50783 14.9834 7.34202 14.847 7.27293ZM1.71095 12.928L2.57966 9.37673L7.67795 7.62701C7.71767 7.6132 7.75048 7.58211 7.7643 7.54065C7.78848 7.46811 7.75048 7.39038 7.67795 7.36447L2.57966 5.61648L1.71441 2.07906L12.5604 7.5182L1.71095 12.928Z" fill="#1FC77E"/>
</svg>
