<svg width="53" height="52" viewBox="0 0 53 52" fill="none" xmlns="http://www.w3.org/2000/svg">
<path d="M8.51644 0.0259243L-2.27186e-06 0.0259247L-2.51862e-07 46.2381L8.54285 46.2381L8.54285 14.515L8.88615 14.3596C9.09741 14.6445 9.28226 14.9681 9.53313 15.2271C18.7098 24.2391 27.8996 33.251 37.0894 42.263C39.3341 44.4642 41.5655 46.6524 43.8102 48.8407C44.0082 49.0349 44.2063 49.1903 44.4175 49.3456L47.1243 52L53 46.2381L50.2668 43.5578C50.0952 43.3247 49.8971 43.1046 49.6726 42.8844C38.2646 31.7101 26.8565 20.5229 15.4616 9.33569C15.2108 9.08967 14.9731 8.83073 14.5374 8.39049L46.9923 8.39049L46.9923 1.7606e-06L12.504 3.26813e-06C11.1704 3.32642e-06 9.82361 3.38529e-06 8.49003 3.44359e-06L8.51644 0.0259243Z" fill="#F4FAFF"/>
</svg>
